<?xml version="1.0" standalone="no"?>
<!DOCTYPE svg PUBLIC "-//W3C//DTD SVG 20010904//EN"
 "http://www.w3.org/TR/2001/REC-SVG-20010904/DTD/svg10.dtd">
<svg version="1.0" xmlns="http://www.w3.org/2000/svg"
 width="1408.000000pt" height="768.000000pt" viewBox="0 0 1408.000000 768.000000"
 preserveAspectRatio="xMidYMid meet">

<g transform="translate(0.000000,768.000000) scale(0.100000,-0.100000)"
fill="#000000" stroke="none">
<path d="M6949 6317 c-85 -32 -148 -103 -175 -195 -29 -100 2 -200 87 -276
l49 -44 0 -156 0 -156 -142 0 c-168 0 -232 -15 -304 -69 -35 -26 -59 -56 -84
-105 -34 -66 -35 -73 -34 -173 l1 -103 -396 0 c-419 -1 -493 -7 -599 -49 -148
-59 -293 -193 -361 -333 -81 -168 -76 -69 -76 -1468 l0 -1245 23 -79 c30 -104
63 -172 118 -243 95 -122 235 -216 380 -253 75 -19 117 -20 1601 -20 1368 0
1531 2 1596 16 192 43 369 184 459 366 78 159 73 52 73 1458 0 1398 5 1301
-69 1455 -70 148 -172 251 -321 325 -128 63 -192 70 -645 70 l-387 0 -6 106
c-4 92 -9 114 -36 169 -34 69 -78 112 -151 148 -40 19 -64 22 -212 25 l-168 4
0 157 0 156 36 25 c49 33 80 82 99 158 33 128 -26 255 -148 318 -42 23 -161
28 -208 11z m511 -1107 c16 -16 20 -33 20 -95 l0 -75 -440 0 -440 0 0 73 c0
49 5 80 16 95 l15 22 405 0 c391 0 405 -1 424 -20z m-1494 -782 l2 -346 -58
-21 c-107 -39 -227 -146 -280 -251 -56 -110 -69 -271 -31 -391 57 -179 208
-314 396 -354 87 -18 113 -18 200 0 139 29 255 108 334 225 107 161 115 350
23 535 -39 80 -153 184 -244 225 l-76 34 -7 91 c-3 49 -4 205 -3 345 l3 255
815 0 815 0 3 -347 2 -346 -48 -16 c-101 -34 -210 -122 -266 -215 -107 -177
-107 -389 2 -557 76 -117 197 -199 337 -229 87 -18 113 -18 199 0 217 46 383
218 416 429 35 222 -87 452 -288 547 -37 17 -74 34 -82 39 -13 6 -15 55 -15
349 l0 342 170 3 c280 6 372 -15 470 -105 60 -56 96 -109 125 -184 l23 -60 2
-812 3 -813 -211 0 c-117 0 -241 -5 -277 -11 -124 -20 -244 -110 -295 -222
-38 -84 -47 -170 -44 -437 2 -135 2 -307 1 -383 l-2 -137 -1042 2 -1043 3 -1
430 c-1 462 -2 474 -55 562 -34 56 -135 140 -193 162 -68 25 -113 29 -366 30
l-205 1 1 812 1 813 23 60 c30 77 58 120 111 171 109 103 186 123 459 121
l195 -2 1 -347z m239 -617 c47 -21 111 -88 132 -140 23 -55 21 -148 -5 -202
-47 -96 -129 -152 -227 -153 -81 -1 -144 24 -195 80 -54 59 -73 105 -73 179 0
191 191 314 368 236z m1890 0 c161 -70 200 -294 74 -420 -102 -102 -272 -100
-368 4 -53 57 -73 106 -73 180 -2 190 190 313 367 236z m-2410 -1312 c19 -17
40 -47 45 -67 7 -24 10 -173 8 -427 l-3 -390 -97 2 c-161 3 -257 42 -351 142
-100 107 -110 150 -111 493 l-1 278 237 0 237 0 36 -31z m3223 -192 c6 -352
-18 -457 -126 -563 -93 -91 -206 -133 -359 -134 l-72 0 -6 34 c-4 18 -5 204
-3 413 3 420 2 411 71 453 29 18 52 20 262 20 l230 0 3 -223z"/>
<path d="M6465 2490 c-64 -26 -95 -121 -59 -179 36 -56 166 -142 288 -191 180
-71 393 -85 577 -37 156 41 370 161 404 227 33 64 9 146 -51 175 -55 26 -95
19 -160 -27 -180 -126 -386 -167 -592 -118 -94 23 -161 54 -249 116 -63 45
-109 55 -158 34z"/>
</g>
</svg>
